<svg width="180" height="180" viewBox="0 0 180 180" fill="none" xmlns="http://www.w3.org/2000/svg">
<rect width="180" height="180" rx="42" fill="#100F0F"/>
<path d="M84.6554 114.14L83.3954 113.58L80.0354 96.78L80.4554 94.82L97.1154 84.18C99.2621 82.6867 101.129 80.96 102.715 79C104.302 77.04 105.095 74.7533 105.095 72.14C105.095 66.4467 102.482 62.2 97.2554 59.4C92.0287 56.5067 85.1687 54.8267 76.6754 54.36L76.3954 52.82L81.0154 45.4L82.9754 44.84C88.7621 45.0267 93.9887 46.1467 98.6554 48.2C103.415 50.2533 107.195 53.0067 109.995 56.46C112.889 59.82 114.335 63.6467 114.335 67.94C114.335 71.86 113.635 75.22 112.235 78.02C110.835 80.7267 108.969 83.1067 106.635 85.16C104.302 87.12 101.782 88.9867 99.0754 90.76C96.3687 92.44 93.7087 94.2133 91.0954 96.08L90.6754 97.34L93.6154 110.64L93.1954 111.76L84.6554 114.14ZM88.2954 143.68C85.6821 143.68 83.7221 142.887 82.4154 141.3C81.1087 139.62 80.4554 137.753 80.4554 135.7C80.4554 133.273 81.2487 131.22 82.8354 129.54C84.4221 127.86 86.5221 127.02 89.1354 127.02C91.7487 127.02 93.7087 127.813 95.0154 129.4C96.4154 130.987 97.1154 132.853 97.1154 135C97.1154 137.333 96.3221 139.387 94.7354 141.16C93.1487 142.84 91.0021 143.68 88.2954 143.68Z" fill="#FFD791"/>
<rect x="16.5576" y="99.454" width="8.73308" height="103.945" transform="rotate(-45.7392 16.5576 99.454)" fill="#CC5803"/>
<path d="M21.3914 90.0737L55.4345 110.343L50.0431 119.398L15.9999 99.1288L21.3914 90.0737Z" fill="#100F0F"/>
<rect width="8.73308" height="103.945" transform="matrix(-0.697926 -0.71617 -0.71617 0.697926 165.538 99.2544)" fill="#CC5803"/>
<path d="M166 99.0298L131.636 118.87L127 110.84L161.364 91L166 99.0298Z" fill="#100F0F"/>
</svg>
