<svg width="201" height="100" viewBox="0 0 201 100" fill="none" xmlns="http://www.w3.org/2000/svg">
<path d="M70.5011 66.78C68.4644 66.78 66.6661 66.585 65.1061 66.195C63.5894 65.8483 62.3978 65.5017 61.5311 65.155C60.7078 64.765 60.2961 64.57 60.2961 64.57L59.9711 63.92C59.9711 63.92 60.0144 63.6383 60.1011 63.075C60.1878 62.4683 60.2744 61.6667 60.3611 60.67C60.4478 59.63 60.5344 58.4167 60.6211 57.03C60.7078 55.6433 60.7511 54.17 60.7511 52.61L63.6761 52.285C63.6761 55.405 63.8928 57.7883 64.3261 59.435C64.7594 61.0383 65.5828 62.1433 66.7961 62.75C68.0094 63.3133 69.7861 63.595 72.1261 63.595C74.8128 63.595 76.9794 62.9667 78.6261 61.71C80.3161 60.41 81.1611 58.655 81.1611 56.445C81.1611 55.015 80.6844 53.78 79.7311 52.74C78.7778 51.7 77.5428 50.7467 76.0261 49.88C74.5528 49.0133 72.9711 48.1467 71.2811 47.28C69.5478 46.37 67.8578 45.395 66.2111 44.355C64.6078 43.315 63.2861 42.1233 62.2461 40.78C61.2061 39.3933 60.6861 37.7683 60.6861 35.905C60.6861 33.6083 61.3361 31.55 62.6361 29.73C63.9794 27.91 65.7778 26.48 68.0311 25.44C70.2844 24.3567 72.8194 23.815 75.6361 23.815C77.5861 23.815 79.2978 23.945 80.7711 24.205C82.2878 24.465 83.4578 24.7467 84.2811 25.05C85.1478 25.31 85.5811 25.44 85.5811 25.44L85.7761 25.83C85.7761 25.83 85.6678 26.3283 85.4511 27.325C85.2778 28.3217 85.0828 29.665 84.8661 31.355C84.6494 33.0017 84.4761 34.8217 84.3461 36.815L81.8111 37.075L81.4211 36.75C81.4211 36.75 81.4428 36.4467 81.4861 35.84C81.5728 35.19 81.6161 34.3667 81.6161 33.37C81.6161 31.0733 81.0528 29.4917 79.9261 28.625C78.8428 27.7583 76.8278 27.325 73.8811 27.325C71.4978 27.325 69.5261 27.9317 67.9661 29.145C66.4494 30.315 65.6911 31.7883 65.6911 33.565C65.6911 34.865 66.1028 36.035 66.9261 37.075C67.7494 38.0717 68.8328 38.9817 70.1761 39.805C71.5194 40.6283 72.9711 41.4517 74.5311 42.275C76.4378 43.2283 78.3011 44.2467 80.1211 45.33C81.9844 46.4133 83.5228 47.6483 84.7361 49.035C85.9494 50.4217 86.5561 52.1117 86.5561 54.105C86.5561 56.575 85.8628 58.7633 84.4761 60.67C83.1328 62.5767 81.2478 64.0717 78.8211 65.155C76.4378 66.2383 73.6644 66.78 70.5011 66.78Z" fill="#CC5803"/>
<path d="M92.5011 78.78C90.4644 78.78 88.6661 78.585 87.1061 78.195C85.5894 77.8483 84.3978 77.5017 83.5311 77.155C82.7078 76.765 82.2961 76.57 82.2961 76.57L81.9711 75.92C81.9711 75.92 82.0144 75.6383 82.1011 75.075C82.1878 74.4683 82.2744 73.6667 82.3611 72.67C82.4478 71.63 82.5344 70.4167 82.6211 69.03C82.7078 67.6433 82.7511 66.17 82.7511 64.61L85.6761 64.285C85.6761 67.405 85.8928 69.7883 86.3261 71.435C86.7594 73.0383 87.5828 74.1433 88.7961 74.75C90.0094 75.3133 91.7861 75.595 94.1261 75.595C96.8128 75.595 98.9794 74.9667 100.626 73.71C102.316 72.41 103.161 70.655 103.161 68.445C103.161 67.015 102.684 65.78 101.731 64.74C100.778 63.7 99.5428 62.7467 98.0261 61.88C96.5528 61.0133 94.9711 60.1467 93.2811 59.28C91.5478 58.37 89.8578 57.395 88.2111 56.355C86.6078 55.315 85.2861 54.1233 84.2461 52.78C83.2061 51.3933 82.6861 49.7683 82.6861 47.905C82.6861 45.6083 83.3361 43.55 84.6361 41.73C85.9794 39.91 87.7778 38.48 90.0311 37.44C92.2844 36.3567 94.8194 35.815 97.6361 35.815C99.5861 35.815 101.298 35.945 102.771 36.205C104.288 36.465 105.458 36.7467 106.281 37.05C107.148 37.31 107.581 37.44 107.581 37.44L107.776 37.83C107.776 37.83 107.668 38.3283 107.451 39.325C107.278 40.3217 107.083 41.665 106.866 43.355C106.649 45.0017 106.476 46.8217 106.346 48.815L103.811 49.075L103.421 48.75C103.421 48.75 103.443 48.4467 103.486 47.84C103.573 47.19 103.616 46.3667 103.616 45.37C103.616 43.0733 103.053 41.4917 101.926 40.625C100.843 39.7583 98.8278 39.325 95.8811 39.325C93.4978 39.325 91.5261 39.9317 89.9661 41.145C88.4494 42.315 87.6911 43.7883 87.6911 45.565C87.6911 46.865 88.1028 48.035 88.9261 49.075C89.7494 50.0717 90.8328 50.9817 92.1761 51.805C93.5194 52.6283 94.9711 53.4517 96.5311 54.275C98.4378 55.2283 100.301 56.2467 102.121 57.33C103.984 58.4133 105.523 59.6483 106.736 61.035C107.949 62.4217 108.556 64.1117 108.556 66.105C108.556 68.575 107.863 70.7633 106.476 72.67C105.133 74.5767 103.248 76.0717 100.821 77.155C98.4378 78.2383 95.6644 78.78 92.5011 78.78Z" fill="#F7B05B"/>
<path d="M8.83641 66.68C7.58307 66.68 6.50307 66.4667 5.59641 66.04C4.68974 65.6133 3.98307 65 3.47641 64.2C2.99641 63.4 2.75641 62.4533 2.75641 61.36C3.12974 60.9067 3.66307 60.3467 4.35641 59.68C5.07641 59.04 5.86307 58.4 6.71641 57.76V57.52C5.32974 57.28 4.26307 56.8267 3.51641 56.16C2.79641 55.4933 2.40974 54.64 2.35641 53.6C2.83641 53.1467 3.35641 52.7067 3.91641 52.28C4.47641 51.8267 5.07641 51.4133 5.71641 51.04V50.48L7.79641 51.16C6.96974 51.5867 6.36974 51.9733 5.99641 52.32C5.64974 52.64 5.47641 52.9733 5.47641 53.32C5.47641 53.8533 5.79641 54.2533 6.43641 54.52C7.07641 54.76 7.88974 54.9467 8.87641 55.08C9.88974 55.1867 10.9564 55.3067 12.0764 55.44C13.2231 55.5733 14.2897 55.7867 15.2764 56.08C16.2897 56.3467 17.1164 56.7467 17.7564 57.28C18.3964 57.84 18.7164 58.6133 18.7164 59.6C18.7164 60.48 18.4364 61.3467 17.8764 62.2C17.3431 63.0533 16.5964 63.8133 15.6364 64.48C14.7031 65.1467 13.6497 65.68 12.4764 66.08C11.3031 66.48 10.0897 66.68 8.83641 66.68ZM10.1964 64.72C11.2364 64.72 12.2097 64.5333 13.1164 64.16C14.0231 63.8133 14.7564 63.3333 15.3164 62.72C15.8764 62.1067 16.1564 61.4533 16.1564 60.76C16.1564 60.2267 15.9564 59.8 15.5564 59.48C15.1564 59.16 14.3964 58.8667 13.2764 58.6C12.1831 58.36 10.5697 58.1067 8.43641 57.84C7.63641 58.4 7.02307 59.0133 6.59641 59.68C6.16974 60.3733 5.95641 61.0533 5.95641 61.72C5.95641 62.6267 6.34307 63.3467 7.11641 63.88C7.88974 64.44 8.91641 64.72 10.1964 64.72ZM10.3564 50.04C11.5831 50.04 12.5431 49.6533 13.2364 48.88C13.9564 48.1067 14.3164 47.04 14.3164 45.68C14.3164 44.1333 13.8897 42.88 13.0364 41.92C12.1831 40.96 11.0764 40.48 9.71641 40.48C8.48974 40.48 7.51641 40.88 6.79641 41.68C6.10307 42.48 5.75641 43.56 5.75641 44.92C5.75641 46.44 6.18307 47.68 7.03641 48.64C7.88974 49.5733 8.99641 50.04 10.3564 50.04ZM9.43641 51.8C8.12974 51.8 6.96974 51.5467 5.95641 51.04C4.96974 50.5067 4.18307 49.7867 3.59641 48.88C3.03641 47.9467 2.75641 46.8933 2.75641 45.72C2.75641 44.3867 3.08974 43.1733 3.75641 42.08C4.44974 40.9867 5.35641 40.1067 6.47641 39.44C7.62307 38.7733 8.86307 38.44 10.1964 38.44C10.9431 38.44 11.6497 38.52 12.3164 38.68C13.0097 38.8133 13.6097 38.88 14.1164 38.88C14.6497 38.8267 15.3964 38.6933 16.3564 38.48C17.3431 38.2667 18.4364 38 19.6364 37.68L19.7564 37.84L19.3164 40.08C18.7297 40.16 18.1164 40.2267 17.4764 40.28C16.8364 40.3333 16.3031 40.3867 15.8764 40.44L15.7164 40.64C16.7831 41.8133 17.3164 43.1733 17.3164 44.72C17.3164 46.0267 16.9564 47.2133 16.2364 48.28C15.5431 49.3467 14.5964 50.2 13.3964 50.84C12.2231 51.48 10.9031 51.8 9.43641 51.8ZM23.9555 43.12C23.9555 42.4267 23.8355 41.8933 23.5955 41.52C23.3555 41.1467 22.9821 40.96 22.4755 40.96C22.2621 40.96 22.0355 40.9867 21.7955 41.04C21.5821 41.0933 21.4755 41.12 21.4755 41.12L21.6355 39.64C22.2488 39.5333 22.8888 39.4133 23.5555 39.28C24.2221 39.1467 24.8355 39.0133 25.3955 38.88C25.9821 38.7467 26.4488 38.64 26.7955 38.56C27.1688 38.48 27.3555 38.44 27.3555 38.44L27.5955 38.92C27.4621 39.2667 27.3288 39.8667 27.1955 40.72C27.0888 41.5467 26.9821 42.52 26.8755 43.64C26.7688 44.76 26.6888 45.9467 26.6355 47.2C26.5821 48.4267 26.5555 49.6267 26.5555 50.8C26.5555 53.4133 27.6221 54.72 29.7555 54.72C30.6888 54.72 31.5555 54.4667 32.3555 53.96C33.1821 53.4267 33.9288 52.92 34.5955 52.44V43.16C34.5955 42.36 34.4488 41.8 34.1555 41.48C33.8621 41.16 33.3421 41 32.5955 41C32.4888 41 32.3021 41.0133 32.0355 41.04C31.7688 41.04 31.6355 41.04 31.6355 41.04L31.7955 39.6C32.5155 39.4933 33.2355 39.3733 33.9555 39.24C34.6755 39.1067 35.3288 38.9867 35.9155 38.88C36.5288 38.7467 37.0221 38.64 37.3955 38.56C37.7688 38.48 37.9555 38.44 37.9555 38.44L38.1955 38.92C38.0355 39.32 37.8888 40.2133 37.7555 41.6C37.6221 42.9867 37.5155 44.6667 37.4355 46.64C37.3555 48.6133 37.3155 50.6667 37.3155 52.8C37.3155 53.3867 37.4621 53.84 37.7555 54.16C38.0488 54.48 38.4488 54.64 38.9555 54.64C39.3821 54.64 39.7688 54.56 40.1155 54.4C40.4888 54.2133 40.7821 54.04 40.9955 53.88C41.2355 53.72 41.3555 53.64 41.3555 53.64L41.9155 54.28C41.9155 54.28 41.7955 54.44 41.5555 54.76C41.3421 55.08 41.0488 55.4533 40.6755 55.88C40.3288 56.3067 39.9555 56.68 39.5555 57C39.1555 57.32 38.7821 57.48 38.4355 57.48C36.2755 57.48 35.0888 56.4 34.8755 54.24L34.6755 54.16C33.3955 55.1467 32.2355 55.9467 31.1955 56.56C30.1821 57.1733 29.4888 57.48 29.1155 57.48C27.4088 57.48 26.0888 57.08 25.1555 56.28C24.2488 55.48 23.7955 54.3333 23.7955 52.84L23.9555 43.12ZM51.8361 57.48C50.1561 57.48 48.6894 57.1067 47.4361 56.36C46.1828 55.6133 45.1961 54.5867 44.4761 53.28C43.7828 51.9467 43.4361 50.4 43.4361 48.64C43.4361 47.28 43.6628 45.9867 44.1161 44.76C44.5961 43.5333 45.2494 42.4533 46.0761 41.52C46.9028 40.56 47.8361 39.8133 48.8761 39.28C49.9428 38.72 51.0761 38.44 52.2761 38.44C56.2494 38.44 58.2361 40.3733 58.2361 44.24C58.2361 44.5867 58.2094 44.9467 58.1561 45.32C58.1028 45.6933 58.0494 45.9867 57.9961 46.2L57.4761 46.68H46.4361C46.4094 49.0533 46.8361 50.9333 47.7161 52.32C48.6228 53.68 49.8894 54.48 51.5161 54.72C53.1428 54.9333 55.0628 54.5333 57.2761 53.52L57.5161 53.6L57.9561 54.76C57.4228 55.1333 56.7828 55.5333 56.0361 55.96C55.3161 56.3867 54.5828 56.7467 53.8361 57.04C53.0894 57.3333 52.4228 57.48 51.8361 57.48ZM46.5961 45.2L53.8361 44.84C54.2361 44.7867 54.5028 44.6933 54.6361 44.56C54.7694 44.4267 54.8361 44.16 54.8361 43.76C54.8361 42.6933 54.5428 41.88 53.9561 41.32C53.3961 40.76 52.5828 40.48 51.5161 40.48C50.2894 40.48 49.2228 40.9067 48.3161 41.76C47.4094 42.5867 46.8361 43.7333 46.5961 45.2ZM125.504 57.48C123.424 57.48 122.237 56.5333 121.944 54.64L121.664 54.52C120.277 55.4533 119.171 56.16 118.344 56.64C117.517 57.12 116.957 57.36 116.664 57.36C115.144 57.36 113.797 57.0133 112.624 56.32C111.477 55.6 110.571 54.6133 109.904 53.36C109.264 52.08 108.944 50.6 108.944 48.92C108.944 47 109.384 45.2533 110.264 43.68C111.171 42.08 112.384 40.8133 113.904 39.88C115.424 38.92 117.091 38.44 118.904 38.44C119.277 38.44 119.691 38.4533 120.144 38.48C120.597 38.5067 121.104 38.5467 121.664 38.6V31.96C121.664 31.2133 121.544 30.6667 121.304 30.32C121.064 29.9733 120.691 29.8 120.184 29.8C119.971 29.8 119.744 29.8267 119.504 29.88C119.291 29.9333 119.184 29.96 119.184 29.96L119.344 28.48C120.037 28.4 120.731 28.2933 121.424 28.16C122.117 28.0267 122.757 27.8933 123.344 27.76C123.931 27.6267 124.397 27.52 124.744 27.44C125.091 27.36 125.264 27.32 125.264 27.32L125.504 27.84C125.397 28.0267 125.291 28.6267 125.184 29.64C125.077 30.6533 124.971 31.9867 124.864 33.64C124.784 35.2933 124.704 37.16 124.624 39.24C124.544 41.2933 124.477 43.48 124.424 45.8C124.397 48.12 124.384 50.4533 124.384 52.8C124.384 53.3867 124.531 53.84 124.824 54.16C125.117 54.48 125.517 54.64 126.024 54.64C126.451 54.64 126.837 54.56 127.184 54.4C127.557 54.2133 127.851 54.04 128.064 53.88C128.304 53.72 128.424 53.64 128.424 53.64L128.984 54.28C128.984 54.28 128.891 54.4133 128.704 54.68C128.517 54.9467 128.264 55.28 127.944 55.68C127.624 56.0533 127.251 56.4133 126.824 56.76C126.424 57.1067 125.984 57.3467 125.504 57.48ZM117.304 54.76C117.784 54.76 118.277 54.6533 118.784 54.44C119.291 54.2267 119.757 53.9867 120.184 53.72C120.637 53.4267 120.997 53.1733 121.264 52.96C121.531 52.7467 121.664 52.64 121.664 52.64V41.68C121.664 41.68 121.317 41.5333 120.624 41.24C119.931 40.92 118.984 40.76 117.784 40.76C115.997 40.76 114.584 41.3733 113.544 42.6C112.531 43.8 112.024 45.4533 112.024 47.56C112.024 48.8933 112.251 50.1067 112.704 51.2C113.184 52.2933 113.824 53.16 114.624 53.8C115.424 54.44 116.317 54.76 117.304 54.76ZM130.068 57.48L130.228 55.84C131.002 55.6267 131.535 55.36 131.828 55.04C132.148 54.6933 132.335 54.24 132.388 53.68C132.442 53.12 132.468 52.4267 132.468 51.6V31.96C132.468 31.2933 132.402 30.8133 132.268 30.52C132.162 30.2 131.935 30 131.588 29.92C131.268 29.84 130.775 29.84 130.108 29.92L129.988 29.84L130.148 28.48C131.135 28.3467 132.122 28.1867 133.108 28C134.095 27.8133 135.082 27.5867 136.068 27.32L136.308 27.84C136.202 28.0267 136.095 28.64 135.988 29.68C135.882 30.6933 135.775 32.04 135.668 33.72C135.588 35.3733 135.508 37.2533 135.428 39.36C135.348 41.4667 135.282 43.6933 135.228 46.04C135.202 48.3867 135.188 50.7333 135.188 53.08C135.188 53.88 135.295 54.4533 135.508 54.8C135.722 55.1467 136.082 55.32 136.588 55.32L137.988 55.24L138.068 55.4L137.748 57.12C137.322 57.0933 136.748 57.0667 136.028 57.04C135.335 57.0133 134.722 57 134.188 57C133.708 57 133.095 57.04 132.348 57.12C131.628 57.2267 130.868 57.3467 130.068 57.48ZM148.594 57.48C146.914 57.48 145.447 57.1067 144.194 56.36C142.941 55.6133 141.954 54.5867 141.234 53.28C140.541 51.9467 140.194 50.4 140.194 48.64C140.194 47.28 140.421 45.9867 140.874 44.76C141.354 43.5333 142.007 42.4533 142.834 41.52C143.661 40.56 144.594 39.8133 145.634 39.28C146.701 38.72 147.834 38.44 149.034 38.44C153.007 38.44 154.994 40.3733 154.994 44.24C154.994 44.5867 154.967 44.9467 154.914 45.32C154.861 45.6933 154.807 45.9867 154.754 46.2L154.234 46.68H143.194C143.167 49.0533 143.594 50.9333 144.474 52.32C145.381 53.68 146.647 54.48 148.274 54.72C149.901 54.9333 151.821 54.5333 154.034 53.52L154.274 53.6L154.714 54.76C154.181 55.1333 153.541 55.5333 152.794 55.96C152.074 56.3867 151.341 56.7467 150.594 57.04C149.847 57.3333 149.181 57.48 148.594 57.48ZM143.354 45.2L150.594 44.84C150.994 44.7867 151.261 44.6933 151.394 44.56C151.527 44.4267 151.594 44.16 151.594 43.76C151.594 42.6933 151.301 41.88 150.714 41.32C150.154 40.76 149.341 40.48 148.274 40.48C147.047 40.48 145.981 40.9067 145.074 41.76C144.167 42.5867 143.594 43.7333 143.354 45.2Z" fill="#D8D8D8"/>
<path d="M169.394 59.065L168.809 58.805L167.249 51.005L167.444 50.095L175.179 45.155C176.175 44.4617 177.042 43.66 177.779 42.75C178.515 41.84 178.884 40.7783 178.884 39.565C178.884 36.9217 177.67 34.95 175.244 33.65C172.817 32.3067 169.632 31.5267 165.689 31.31L165.559 30.595L167.704 27.15L168.614 26.89C171.3 26.9767 173.727 27.4967 175.894 28.45C178.104 29.4033 179.859 30.6817 181.159 32.285C182.502 33.845 183.174 35.6217 183.174 37.615C183.174 39.435 182.849 40.995 182.199 42.295C181.549 43.5517 180.682 44.6567 179.599 45.61C178.515 46.52 177.345 47.3867 176.089 48.21C174.832 48.99 173.597 49.8133 172.384 50.68L172.189 51.265L173.554 57.44L173.359 57.96L169.394 59.065ZM171.084 72.78C169.87 72.78 168.96 72.4117 168.354 71.675C167.747 70.895 167.444 70.0283 167.444 69.075C167.444 67.9483 167.812 66.995 168.549 66.215C169.285 65.435 170.26 65.045 171.474 65.045C172.687 65.045 173.597 65.4133 174.204 66.15C174.854 66.8867 175.179 67.7533 175.179 68.75C175.179 69.8333 174.81 70.7867 174.074 71.61C173.337 72.39 172.34 72.78 171.084 72.78Z" fill="#FFD791"/>
<path d="M143.357 62.9999L154.357 67.9999L174.356 87L171.356 90.9999L143.357 62.9999Z" fill="#CC5803"/>
<path d="M199.981 62.3535L188.645 67.3785L168.184 86.8022L171.356 91L199.981 62.3535Z" fill="#CC5803"/>
</svg>
