<svg width="123" height="172" viewBox="0 0 123 172" fill="none" xmlns="http://www.w3.org/2000/svg">
<path d="M0.518555 112.628L27.349 126.68L67.5376 165.746L61.4425 172L0.518555 112.628Z" fill="#CC5803"/>
<path d="M122.535 112.356L97.2451 124.963L55.442 165.546L61.537 171.8L122.535 112.356Z" fill="#CC5803"/>
<path d="M58.6554 114.14L57.3954 113.58L54.0354 96.78L54.4554 94.82L71.1154 84.18C73.2621 82.6867 75.1287 80.96 76.7154 79C78.3021 77.04 79.0954 74.7533 79.0954 72.14C79.0954 66.4467 76.4821 62.2 71.2554 59.4C66.0287 56.5067 59.1687 54.8267 50.6754 54.36L50.3954 52.82L55.0154 45.4L56.9754 44.84C62.7621 45.0267 67.9887 46.1467 72.6554 48.2C77.4154 50.2533 81.1954 53.0067 83.9954 56.46C86.8887 59.82 88.3354 63.6467 88.3354 67.94C88.3354 71.86 87.6354 75.22 86.2354 78.02C84.8354 80.7267 82.9687 83.1067 80.6354 85.16C78.3021 87.12 75.7821 88.9867 73.0754 90.76C70.3687 92.44 67.7087 94.2133 65.0954 96.08L64.6754 97.34L67.6154 110.64L67.1954 111.76L58.6554 114.14ZM62.2954 143.68C59.6821 143.68 57.7221 142.887 56.4154 141.3C55.1087 139.62 54.4554 137.753 54.4554 135.7C54.4554 133.273 55.2487 131.22 56.8354 129.54C58.4221 127.86 60.5221 127.02 63.1354 127.02C65.7487 127.02 67.7087 127.813 69.0154 129.4C70.4154 130.987 71.1154 132.853 71.1154 135C71.1154 137.333 70.3221 139.387 68.7354 141.16C67.1487 142.84 65.0021 143.68 62.2954 143.68Z" fill="#FFD791"/>
</svg>
