<svg width="35" height="35" viewBox="0 0 35 35" fill="none" xmlns="http://www.w3.org/2000/svg">
<path d="M17.5 35C27.165 35 35 27.165 35 17.5C35 7.83502 27.165 0 17.5 0C7.83502 0 0 7.83502 0 17.5C0 27.165 7.83502 35 17.5 35Z" fill="#CC5803"/>
<path d="M14.995 21.51L14.575 21.3L13.735 16.89L13.84 16.4L17.655 14.195C18.1917 13.845 18.635 13.4717 18.985 13.075C19.335 12.655 19.51 12.1767 19.51 11.64C19.51 10.4967 18.9267 9.62169 17.76 9.01499C16.5934 8.40829 15.0184 8.05829 13.035 7.96499L12.755 7.47499L14.05 4.56999L14.575 4.35999C16.2784 4.40669 17.8067 4.69829 19.16 5.23499C20.5134 5.77169 21.5867 6.49499 22.38 7.40499C23.1734 8.29169 23.57 9.29499 23.57 10.415C23.57 11.2317 23.43 11.9433 23.15 12.55C22.8934 13.1333 22.5084 13.6817 21.995 14.195C21.4817 14.685 20.875 15.175 20.175 15.665C19.475 16.155 18.6817 16.7033 17.795 17.31L17.69 17.59L18.215 20.495L18.04 20.88L14.995 21.51ZM16.325 29.385C15.485 29.385 14.8434 29.14 14.4 28.65C13.98 28.16 13.77 27.5417 13.77 26.795C13.77 25.955 14.015 25.2783 14.505 24.765C15.0184 24.2283 15.7067 23.96 16.57 23.96C17.3867 23.96 18.0167 24.205 18.46 24.695C18.9034 25.1617 19.125 25.78 19.125 26.55C19.125 27.3667 18.8684 28.0433 18.355 28.58C17.865 29.1167 17.1884 29.385 16.325 29.385Z" fill="#E7DECD"/>
</svg>
