<svg width="65" height="65" viewBox="0 0 65 65" fill="none" xmlns="http://www.w3.org/2000/svg">
<g filter="url(#filter0_i_118_33)">
<circle cx="32.5" cy="32.5" r="32.5" fill="#FFD791"/>
</g>
<path d="M27.1168 17.5632C26.7727 19.4399 26.4974 24.118 28.149 27.8176C26.9929 28.9436 24.777 29.4931 23.8135 29.6272C22.2995 28.6219 19.4367 25.4852 20.0974 20.9814C20.9232 15.3515 26.0845 10.9281 27.1168 10.727C28.149 10.5259 32.2781 7.91208 40.5362 9.5206C42.119 10.0568 45.9039 11.7725 48.3813 14.3462C51.4781 17.5632 51.0652 25.8069 50.8588 26.4101C50.6523 27.0133 50.033 31.2357 44.6652 35.6592C40.371 39.1979 38.1964 40.6188 37.6458 40.8869L36.82 45.5114C32.691 46.6373 30.2135 45.6454 29.5942 45.1092C30.0897 42.053 32.1404 38.34 33.1039 36.8656C35.9254 34.3857 41.94 28.9033 43.4265 26.8123C45.2845 24.1984 43.8394 21.9867 44.0458 21.3835C44.2523 20.7803 42.6007 14.1451 36.2006 13.5419C31.0806 13.0594 28.0114 16.0217 27.1168 17.5632Z" fill="#272838"/>
<path d="M36.2007 49.5327C35.9942 49.3316 35.1684 47.7231 29.8006 49.9348C29.5254 49.9348 28.9748 50.2967 28.9748 51.7444C28.9748 53.554 30.42 54.7604 31.4523 54.9615C32.4845 55.1625 34.9619 54.5593 36.2007 53.554C37.4394 52.5487 36.4071 49.7338 36.2007 49.5327Z" fill="#272838"/>
<defs>
<filter id="filter0_i_118_33" x="0.712158" y="0" width="65" height="65" filterUnits="userSpaceOnUse" color-interpolation-filters="sRGB">
<feFlood flood-opacity="0" result="BackgroundImageFix"/>
<feBlend mode="normal" in="SourceGraphic" in2="BackgroundImageFix" result="shape"/>
<feColorMatrix in="SourceAlpha" type="matrix" values="0 0 0 0 0 0 0 0 0 0 0 0 0 0 0 0 0 0 127 0" result="hardAlpha"/>
<feOffset dx="-6" dy="7"/>
<feComposite in2="hardAlpha" operator="arithmetic" k2="-1" k3="1"/>
<feColorMatrix type="matrix" values="0 0 0 0 0 0 0 0 0 0 0 0 0 0 0 0 0 0 0.25 0"/>
<feBlend mode="normal" in2="shape" result="effect1_innerShadow_118_33"/>
</filter>
</defs>
</svg>
