<svg width="251" height="378" viewBox="0 0 251 378" fill="none" xmlns="http://www.w3.org/2000/svg">
<g filter="url(#filter0_i_411_16)">
<rect x="2.00317" y="2" width="246" height="374" rx="3" stroke="#FFD791" stroke-width="4"/>
</g>
<g filter="url(#filter1_i_411_16)">
<path d="M4.00415 326L246 33V81L4.00531 369.797L4.00415 326Z" fill="#CC5803"/>
</g>
<g filter="url(#filter2_d_411_16)">
<path d="M87.7899 256.507C87.1631 257.262 86.4655 257.785 85.6971 258.076C84.9356 258.359 84.1408 258.406 83.3128 258.217C82.4848 258.029 81.6728 257.605 80.8767 256.944C80.2202 256.399 79.711 255.81 79.3493 255.176C78.9862 254.528 78.7726 253.859 78.7085 253.168C78.6444 252.477 78.7278 251.784 78.9587 251.088C79.1964 250.384 79.5878 249.704 80.1329 249.048C80.3441 248.793 80.5785 248.544 80.8362 248.301C81.1007 248.049 81.3489 247.825 81.5807 247.629C81.8125 247.434 82.0061 247.276 82.1616 247.155C82.3089 247.028 82.3825 246.964 82.3825 246.964L82.6039 247.023C82.6039 247.023 82.686 247.133 82.8503 247.353C83.0214 247.564 83.263 247.841 83.575 248.183C83.8788 248.518 84.2345 248.883 84.6423 249.277L83.7452 250.508C83.7452 250.508 83.6829 250.449 83.5585 250.332C83.4257 250.208 83.2814 250.081 83.1255 249.952C82.7562 249.645 82.3975 249.535 82.0494 249.62C81.7013 249.705 81.3296 249.986 80.9344 250.462C80.5801 250.889 80.3795 251.339 80.3326 251.813C80.2925 252.279 80.4088 252.757 80.6814 253.246C80.9609 253.728 81.4002 254.217 81.9994 254.715C82.6723 255.273 83.3149 255.668 83.9272 255.899C84.5463 256.122 85.1125 256.183 85.6258 256.083C86.131 255.975 86.5607 255.708 86.915 255.281C87.2897 254.83 87.4473 254.365 87.3877 253.885C87.3281 253.406 87.0355 252.865 86.5099 252.262L87.4172 251.019C87.4172 251.019 87.4768 251.09 87.5958 251.23C87.7217 251.362 87.8859 251.54 88.0885 251.764C88.2896 251.972 88.512 252.206 88.7556 252.463C88.9977 252.706 89.2426 252.937 89.4902 253.156L89.5358 253.402C89.5358 253.402 89.478 253.555 89.3625 253.861C89.2469 254.167 89.0599 254.56 88.8013 255.038C88.5495 255.508 88.2124 255.998 87.7899 256.507ZM95.7519 246.917C95.1523 247.639 94.4752 248.137 93.7204 248.412C92.9643 248.671 92.1756 248.703 91.3545 248.506C90.5401 248.301 89.7349 247.869 88.9388 247.208C88.2987 246.676 87.7944 246.098 87.4258 245.473C87.0491 244.842 86.8185 244.193 86.7339 243.526C86.648 242.845 86.7068 242.173 86.9105 241.51C87.1209 240.839 87.4783 240.2 87.9825 239.593C88.6025 238.846 89.2865 238.339 90.0344 238.073C90.7891 237.799 91.573 237.756 92.386 237.946C93.1989 238.136 94.0034 238.561 94.7995 239.222C95.4561 239.767 95.9693 240.359 96.3392 240.999C96.7009 241.632 96.9248 242.289 97.0107 242.971C97.0884 243.645 97.0262 244.321 96.8239 244.999C96.6135 245.67 96.2561 246.309 95.7519 246.917ZM94.9713 245.728C95.2983 245.334 95.4751 244.912 95.5016 244.463C95.5281 244.013 95.4057 243.551 95.1344 243.077C94.8617 242.587 94.4422 242.107 93.8759 241.637C93.1537 241.037 92.4783 240.615 91.8496 240.37C91.2277 240.117 90.6635 240.037 90.157 240.13C89.6505 240.222 89.2201 240.482 88.8658 240.908C88.5455 241.294 88.3763 241.715 88.358 242.171C88.3383 242.612 88.4641 243.07 88.7354 243.545C89.0067 244.02 89.4255 244.492 89.9918 244.963C90.7058 245.555 91.3778 245.982 92.0079 246.241C92.6366 246.486 93.2008 246.566 93.7005 246.482C94.207 246.39 94.6306 246.138 94.9713 245.728ZM105.047 235.821C104.046 235.406 103.09 235.022 102.179 234.667C101.259 234.305 100.418 233.982 99.6571 233.696C98.8877 233.404 98.2323 233.158 97.6912 232.958L97.6094 233.057C97.6833 233.118 97.8283 233.252 98.0444 233.46C98.2606 233.667 98.5144 233.912 98.8058 234.196C99.1041 234.471 99.4153 234.764 99.7395 235.075C100.056 235.379 100.359 235.673 100.651 235.956C100.941 236.225 101.186 236.456 101.385 236.649C101.592 236.835 101.72 236.948 101.769 236.989C102.032 237.207 102.272 237.184 102.49 236.922C102.531 236.873 102.596 236.795 102.684 236.688C102.765 236.574 102.812 236.509 102.825 236.493L102.948 236.47L103.611 237.25C103.543 237.332 103.427 237.464 103.262 237.646C103.104 237.819 102.939 238.001 102.767 238.191C102.602 238.373 102.468 238.526 102.366 238.649C102.285 238.747 102.19 238.87 102.082 239.016C101.975 239.163 101.874 239.308 101.782 239.453C101.689 239.598 101.61 239.719 101.543 239.816C101.483 239.905 101.453 239.949 101.453 239.949L100.714 239.211C100.894 238.945 100.963 238.711 100.922 238.51C100.879 238.295 100.722 238.033 100.451 237.725C100.375 237.633 100.215 237.466 99.9729 237.223C99.7308 236.981 99.4428 236.693 99.1089 236.361C98.7819 236.02 98.4432 235.676 98.0929 235.33C97.7413 234.969 97.4067 234.629 97.0893 234.31C96.7787 233.982 96.5153 233.715 96.2991 233.508C96.0816 233.286 95.9482 233.154 95.8989 233.113C95.743 232.984 95.6042 232.917 95.4827 232.913C95.3597 232.894 95.2198 232.938 95.063 233.043C94.9047 233.134 94.7152 233.295 94.4943 233.528L94.3694 233.528L93.7474 232.824C93.8714 232.692 94.0193 232.53 94.191 232.34C94.3627 232.15 94.5311 231.964 94.696 231.782C94.8609 231.6 94.9911 231.452 95.0864 231.337C95.2023 231.197 95.3283 231.045 95.4646 230.881C95.5995 230.702 95.7275 230.531 95.8488 230.368C95.97 230.206 96.0606 230.08 96.1206 229.991C96.8874 230.336 97.6255 230.658 98.3348 230.956C99.036 231.247 99.6743 231.513 100.25 231.755C100.832 231.989 101.324 232.19 101.726 232.357C102.134 232.516 102.421 232.629 102.587 232.697L102.669 232.599C102.58 232.456 102.416 232.202 102.178 231.838C101.946 231.465 101.662 231.014 101.325 230.485C100.995 229.948 100.626 229.357 100.217 228.713C99.8093 228.069 99.3758 227.397 98.917 226.698C99.0124 226.583 99.1323 226.447 99.2768 226.289C99.4281 226.124 99.5787 225.951 99.7285 225.77C99.8784 225.59 100.014 225.418 100.135 225.255C100.244 225.124 100.37 224.965 100.511 224.777C100.652 224.575 100.779 224.396 100.893 224.242C101 224.081 101.07 223.979 101.104 223.938L101.194 223.93L101.871 224.617C101.61 224.982 101.474 225.271 101.463 225.484C101.444 225.691 101.546 225.886 101.767 226.07C101.874 226.158 102.058 226.304 102.319 226.507C102.587 226.702 102.901 226.934 103.259 227.204C103.616 227.459 103.997 227.734 104.404 228.029C104.808 228.31 105.206 228.591 105.595 228.873C105.977 229.148 106.326 229.396 106.641 229.617C107.141 229.934 107.499 230.121 107.716 230.176C107.925 230.225 108.111 230.151 108.275 229.954C108.329 229.888 108.383 229.815 108.436 229.735C108.489 229.654 108.523 229.605 108.536 229.589L108.639 229.591L109.322 230.346C109.281 230.395 109.196 230.49 109.065 230.631C108.941 230.763 108.8 230.917 108.642 231.09C108.498 231.263 108.369 231.419 108.253 231.558C108.137 231.698 108.005 231.865 107.857 232.061C107.708 232.256 107.564 232.455 107.423 232.658C107.283 232.86 107.163 233.03 107.062 233.169C106.961 233.307 106.907 233.38 106.9 233.388L106.172 232.638C106.343 232.364 106.428 232.137 106.427 231.955C106.417 231.766 106.317 231.594 106.129 231.437C106.063 231.383 105.929 231.285 105.726 231.145C105.531 230.996 105.287 230.822 104.996 230.622C104.712 230.413 104.407 230.188 104.081 229.945C103.756 229.703 103.435 229.471 103.119 229.251C102.81 229.022 102.526 228.813 102.266 228.625C102.006 228.437 101.806 228.285 101.667 228.17L101.575 228.28C101.791 228.654 102.047 229.081 102.341 229.561C102.636 230.042 102.958 230.572 103.307 231.153C103.656 231.735 104.027 232.34 104.419 232.971C104.811 233.601 105.215 234.241 105.631 234.892L105.047 235.821ZM111.927 227.358L111.201 226.63C111.433 226.2 111.532 225.872 111.496 225.648C111.459 225.409 111.268 225.147 110.923 224.861L106.159 220.905C105.904 220.694 105.712 220.583 105.583 220.573C105.445 220.555 105.301 220.637 105.151 220.817C105.11 220.866 105.056 220.94 104.989 221.037C104.921 221.119 104.86 221.193 104.805 221.258L104.656 221.238L104.024 220.547C104.242 220.284 104.481 220.004 104.741 219.708C105 219.396 105.235 219.113 105.446 218.858C105.576 218.702 105.758 218.466 105.994 218.148C106.236 217.823 106.502 217.461 106.791 217.063L107.552 217.799C107.334 218.145 107.226 218.409 107.228 218.591C107.228 218.757 107.337 218.944 107.553 219.151C107.926 219.503 108.328 219.871 108.757 220.255C109.179 220.633 109.604 221.014 110.034 221.398C110.463 221.783 110.876 222.146 111.271 222.488C111.658 222.823 112.003 223.117 112.307 223.369C112.644 223.648 112.897 223.803 113.066 223.833C113.235 223.862 113.398 223.783 113.555 223.594C113.63 223.504 113.704 223.406 113.778 223.301C113.851 223.195 113.915 223.102 113.968 223.022L114.083 223.034L114.766 223.788C114.608 223.962 114.43 224.16 114.231 224.383C114.04 224.613 113.848 224.836 113.656 225.05C113.479 225.264 113.336 225.436 113.227 225.567C113.07 225.756 112.867 226.017 112.618 226.351C112.384 226.683 112.153 227.019 111.927 227.358ZM122.656 214.886C121.482 214.73 120.379 214.598 119.347 214.489C118.313 214.365 117.402 214.268 116.615 214.197C115.827 214.111 115.208 214.047 114.757 214.006C114.306 213.964 114.081 213.943 114.081 213.943L113.989 214.054L117.856 217.286C118.062 217.456 118.229 217.547 118.359 217.557C118.495 217.56 118.628 217.483 118.758 217.327C118.799 217.278 118.853 217.212 118.921 217.13C118.988 217.033 119.049 216.952 119.103 216.886C119.156 216.805 119.183 216.765 119.183 216.765L119.308 216.765L119.981 217.532C119.981 217.532 119.929 217.586 119.826 217.694C119.73 217.809 119.607 217.949 119.456 218.115C119.311 218.272 119.16 218.437 119.002 218.611C118.859 218.784 118.733 218.935 118.624 219.067C118.447 219.28 118.271 219.508 118.097 219.752C117.922 219.995 117.778 220.202 117.665 220.371C117.552 220.541 117.496 220.626 117.496 220.626L116.755 219.865C116.926 219.592 117.003 219.35 116.983 219.139C116.97 218.921 116.84 218.702 116.593 218.483L111.828 214.277C111.557 214.052 111.315 213.969 111.1 214.027C110.885 214.069 110.593 214.271 110.225 214.631L110.042 214.625L109.412 213.956C109.412 213.956 109.478 213.886 109.608 213.745C109.739 213.604 109.905 213.429 110.105 213.221C110.297 213.007 110.475 212.801 110.639 212.604C110.782 212.431 110.924 212.252 111.066 212.064C111.208 211.877 111.322 211.722 111.409 211.601C111.503 211.471 111.55 211.406 111.55 211.406C112.356 211.52 113.142 211.625 113.909 211.721C114.675 211.817 115.392 211.905 116.058 211.987C116.723 212.054 117.312 212.113 117.824 212.164C118.328 212.209 118.726 212.247 119.017 212.281C119.3 212.308 119.441 212.321 119.441 212.321L119.543 212.198L115.768 209.106C115.573 208.957 115.406 208.882 115.27 208.879C115.14 208.868 115.017 208.933 114.902 209.072C114.833 209.154 114.766 209.244 114.699 209.341C114.631 209.423 114.583 209.481 114.556 209.513L114.439 209.479L113.748 208.759C113.748 208.759 113.796 208.709 113.893 208.609C113.988 208.494 114.108 208.358 114.253 208.201C114.397 208.044 114.545 207.882 114.696 207.717C114.846 207.536 114.979 207.376 115.095 207.236C115.258 207.039 115.428 206.827 115.604 206.598C115.786 206.362 115.938 206.162 116.059 205.999C116.173 205.83 116.229 205.745 116.229 205.745L116.99 206.481C116.798 206.779 116.713 207.041 116.734 207.266C116.746 207.485 116.872 207.7 117.112 207.913L123.528 213.51L122.656 214.886ZM129.639 206.099C129.006 206.862 128.305 207.389 127.536 207.68C126.775 207.963 125.98 208.01 125.152 207.822C124.324 207.634 123.512 207.209 122.716 206.548C121.821 205.805 121.197 204.996 120.843 204.12C120.488 203.229 120.41 202.312 120.611 201.369C120.803 200.419 121.274 199.493 122.023 198.59C122.248 198.32 122.496 198.054 122.767 197.794C123.039 197.534 123.294 197.302 123.532 197.098C123.778 196.886 123.978 196.72 124.134 196.599C124.281 196.472 124.355 196.409 124.355 196.409L124.586 196.455C124.586 196.455 124.668 196.558 124.831 196.762C124.993 196.967 125.223 197.241 125.52 197.584C125.816 197.913 126.163 198.263 126.561 198.635L125.666 199.889C125.666 199.889 125.604 199.83 125.479 199.713C125.353 199.581 125.2 199.44 125.02 199.29C124.675 199.004 124.348 198.905 124.038 198.994C123.72 199.077 123.356 199.364 122.947 199.857C122.539 200.349 122.296 200.841 122.221 201.333C122.145 201.825 122.241 202.327 122.508 202.84C122.774 203.338 123.215 203.843 123.831 204.354C124.503 204.913 125.15 205.303 125.769 205.526C126.388 205.749 126.95 205.807 127.455 205.699C127.96 205.592 128.397 205.317 128.764 204.873C128.969 204.627 129.117 204.39 129.21 204.162C129.309 203.925 129.375 203.737 129.407 203.598C129.432 203.452 129.444 203.379 129.444 203.379L128.274 202.408C128.028 202.203 127.838 202.107 127.702 202.12C127.574 202.124 127.414 202.241 127.224 202.471C127.162 202.545 127.087 202.635 126.999 202.742C126.917 202.84 126.845 202.927 126.784 203.001C126.723 203.074 126.692 203.111 126.692 203.111L126.543 203.091L125.771 202.242C125.853 202.144 125.972 202.008 126.131 201.834C126.28 201.653 126.451 201.456 126.644 201.241C126.843 201.018 127.038 200.792 127.228 200.562C127.399 200.357 127.558 200.156 127.707 199.961C127.847 199.758 127.961 199.596 128.048 199.475C128.142 199.345 128.189 199.28 128.189 199.28L128.728 199.582C128.703 199.796 128.729 199.998 128.807 200.188C128.884 200.363 129.043 200.572 129.286 200.814C129.52 201.05 129.87 201.362 130.338 201.75C130.568 201.941 130.781 202.111 130.976 202.259C131.17 202.393 131.339 202.491 131.481 202.553L131.536 202.787C131.536 202.787 131.483 202.943 131.376 203.256C131.26 203.562 131.063 203.967 130.784 204.47C130.505 204.973 130.123 205.516 129.639 206.099ZM142.339 190.802C141.985 191.229 141.631 191.572 141.276 191.832C140.936 192.091 140.655 192.28 140.431 192.399C140.199 192.512 140.083 192.568 140.083 192.568L139.829 192.523C139.829 192.523 139.778 192.467 139.677 192.356C139.574 192.229 139.431 192.075 139.248 191.895C139.063 191.7 138.858 191.488 138.632 191.259C138.398 191.024 138.154 190.8 137.9 190.589L138.664 189.518C139.115 189.893 139.502 190.145 139.825 190.274C140.147 190.403 140.439 190.41 140.702 190.295C140.97 190.171 141.248 189.937 141.534 189.593C141.861 189.199 142.037 188.811 142.062 188.43C142.088 188.049 141.948 187.732 141.645 187.48C141.415 187.29 141.143 187.216 140.829 187.261C140.522 187.297 140.183 187.396 139.811 187.56C139.439 187.708 139.049 187.876 138.643 188.066C138.221 188.256 137.786 188.422 137.337 188.562C136.894 188.694 136.456 188.746 136.022 188.718C135.594 188.682 135.187 188.504 134.802 188.183C134.326 187.788 134.019 187.298 133.881 186.712C133.75 186.118 133.783 185.494 133.98 184.839C134.176 184.17 134.539 183.515 135.071 182.875C135.404 182.473 135.73 182.14 136.046 181.875C136.361 181.596 136.622 181.39 136.829 181.257C137.037 181.125 137.14 181.058 137.14 181.058L137.372 181.105C137.372 181.105 137.453 181.207 137.616 181.412C137.771 181.609 137.992 181.869 138.279 182.191C138.565 182.498 138.883 182.817 139.232 183.148L138.549 184.12L138.384 184.17C138.384 184.17 138.342 184.128 138.258 184.045C138.175 183.962 138.076 183.873 137.961 183.777C137.591 183.471 137.25 183.347 136.938 183.406C136.632 183.457 136.299 183.7 135.937 184.135C135.644 184.488 135.489 184.851 135.47 185.224C135.459 185.589 135.58 185.877 135.834 186.088C136.048 186.265 136.298 186.348 136.585 186.336C136.87 186.31 137.181 186.228 137.516 186.091C137.852 185.954 138.206 185.803 138.577 185.64C139.034 185.424 139.501 185.229 139.977 185.056C140.453 184.883 140.923 184.801 141.386 184.811C141.841 184.815 142.277 184.99 142.696 185.338C143.188 185.746 143.504 186.251 143.643 186.852C143.781 187.437 143.741 188.07 143.524 188.749C143.306 189.428 142.912 190.112 142.339 190.802ZM150.596 180.856C149.997 181.579 149.319 182.077 148.565 182.352C147.809 182.611 147.02 182.643 146.199 182.446C145.384 182.241 144.579 181.808 143.783 181.148C143.143 180.616 142.639 180.038 142.27 179.413C141.893 178.782 141.663 178.133 141.578 177.466C141.492 176.785 141.551 176.113 141.755 175.45C141.965 174.779 142.322 174.14 142.827 173.533C143.447 172.786 144.131 172.279 144.879 172.013C145.633 171.738 146.417 171.696 147.23 171.886C148.043 172.075 148.848 172.501 149.644 173.162C150.3 173.707 150.813 174.299 151.183 174.939C151.545 175.572 151.769 176.229 151.855 176.911C151.933 177.585 151.87 178.261 151.668 178.939C151.458 179.61 151.1 180.249 150.596 180.856ZM149.815 179.668C150.143 179.274 150.319 178.852 150.346 178.403C150.372 177.953 150.25 177.491 149.979 177.016C149.706 176.527 149.286 176.047 148.72 175.577C147.998 174.977 147.322 174.555 146.694 174.31C146.072 174.057 145.508 173.977 145.001 174.07C144.495 174.162 144.064 174.422 143.71 174.848C143.39 175.234 143.22 175.655 143.202 176.111C143.183 176.552 143.308 177.01 143.58 177.485C143.851 177.96 144.27 178.432 144.836 178.902C145.55 179.495 146.222 179.921 146.852 180.181C147.481 180.426 148.045 180.506 148.545 180.422C149.051 180.329 149.475 180.078 149.815 179.668ZM159.269 170.409C158.67 171.132 157.993 171.63 157.238 171.905C156.482 172.164 155.693 172.196 154.872 171.999C154.058 171.794 153.252 171.361 152.456 170.701C151.816 170.169 151.312 169.591 150.943 168.966C150.567 168.335 150.336 167.686 150.251 167.019C150.165 166.338 150.224 165.666 150.428 165.003C150.638 164.332 150.996 163.693 151.5 163.086C152.12 162.339 152.804 161.832 153.552 161.566C154.307 161.291 155.09 161.249 155.903 161.439C156.716 161.628 157.521 162.054 158.317 162.715C158.974 163.26 159.487 163.852 159.857 164.492C160.218 165.125 160.442 165.782 160.528 166.464C160.606 167.138 160.544 167.814 160.341 168.492C160.131 169.163 159.774 169.802 159.269 170.409ZM158.489 169.221C158.816 168.827 158.993 168.405 159.019 167.956C159.046 167.506 158.923 167.044 158.652 166.569C158.379 166.08 157.96 165.6 157.393 165.13C156.671 164.53 155.996 164.108 155.367 163.863C154.745 163.61 154.181 163.53 153.674 163.622C153.168 163.715 152.738 163.975 152.383 164.401C152.063 164.787 151.894 165.208 151.875 165.664C151.856 166.105 151.982 166.563 152.253 167.038C152.524 167.513 152.943 167.985 153.509 168.455C154.223 169.048 154.895 169.474 155.525 169.734C156.154 169.979 156.718 170.059 157.218 169.975C157.724 169.882 158.148 169.631 158.489 169.221ZM170.294 157.506C169.121 157.35 168.018 157.217 166.985 157.108C165.951 156.985 165.04 156.887 164.254 156.816C163.465 156.73 162.846 156.667 162.395 156.625C161.944 156.584 161.719 156.563 161.719 156.563L161.627 156.674L165.495 159.905C165.7 160.076 165.867 160.166 165.997 160.177C166.133 160.179 166.267 160.103 166.396 159.947C166.437 159.898 166.491 159.832 166.559 159.75C166.626 159.653 166.687 159.571 166.741 159.506C166.794 159.425 166.821 159.385 166.821 159.385L166.946 159.385L167.619 160.151C167.619 160.151 167.568 160.206 167.464 160.314C167.369 160.429 167.245 160.569 167.094 160.734C166.949 160.892 166.798 161.057 166.64 161.231C166.497 161.403 166.371 161.555 166.262 161.686C166.085 161.9 165.909 162.128 165.735 162.372C165.56 162.615 165.417 162.821 165.304 162.991C165.19 163.161 165.134 163.245 165.134 163.245L164.393 162.485C164.565 162.211 164.641 161.969 164.621 161.759C164.608 161.541 164.478 161.322 164.231 161.102L159.466 156.897C159.195 156.672 158.953 156.589 158.738 156.646C158.523 156.689 158.231 156.89 157.863 157.25L157.68 157.244L157.05 156.576C157.05 156.576 157.116 156.505 157.246 156.364C157.377 156.223 157.543 156.049 157.743 155.841C157.936 155.626 158.113 155.42 158.277 155.223C158.42 155.051 158.562 154.871 158.704 154.684C158.846 154.496 158.96 154.342 159.047 154.22C159.141 154.09 159.188 154.025 159.188 154.025C159.994 154.14 160.781 154.245 161.547 154.341C162.313 154.436 163.03 154.525 163.696 154.607C164.362 154.674 164.95 154.733 165.463 154.784C165.967 154.828 166.364 154.867 166.655 154.901C166.938 154.927 167.079 154.941 167.079 154.941L167.181 154.818L163.406 151.725C163.211 151.577 163.045 151.501 162.908 151.499C162.778 151.488 162.655 151.552 162.54 151.692C162.472 151.774 162.404 151.864 162.337 151.961C162.269 152.043 162.221 152.1 162.194 152.133L162.077 152.098L161.386 151.379C161.386 151.379 161.434 151.329 161.531 151.229C161.626 151.114 161.746 150.978 161.891 150.82C162.035 150.663 162.183 150.502 162.334 150.336C162.484 150.156 162.617 149.996 162.733 149.856C162.896 149.659 163.066 149.446 163.242 149.218C163.424 148.981 163.576 148.782 163.698 148.619C163.811 148.449 163.867 148.365 163.867 148.365L164.629 149.101C164.437 149.399 164.351 149.661 164.372 149.886C164.385 150.104 164.511 150.32 164.75 150.532L171.166 156.13L170.294 157.506Z" fill="white"/>
</g>
<defs>
<filter id="filter0_i_411_16" x="0.00317383" y="0" width="250" height="382" filterUnits="userSpaceOnUse" color-interpolation-filters="sRGB">
<feFlood flood-opacity="0" result="BackgroundImageFix"/>
<feBlend mode="normal" in="SourceGraphic" in2="BackgroundImageFix" result="shape"/>
<feColorMatrix in="SourceAlpha" type="matrix" values="0 0 0 0 0 0 0 0 0 0 0 0 0 0 0 0 0 0 127 0" result="hardAlpha"/>
<feOffset dy="4"/>
<feGaussianBlur stdDeviation="2"/>
<feComposite in2="hardAlpha" operator="arithmetic" k2="-1" k3="1"/>
<feColorMatrix type="matrix" values="0 0 0 0 0 0 0 0 0 0 0 0 0 0 0 0 0 0 0.25 0"/>
<feBlend mode="normal" in2="shape" result="effect1_innerShadow_411_16"/>
</filter>
<filter id="filter1_i_411_16" x="4.00415" y="33" width="241.996" height="340.797" filterUnits="userSpaceOnUse" color-interpolation-filters="sRGB">
<feFlood flood-opacity="0" result="BackgroundImageFix"/>
<feBlend mode="normal" in="SourceGraphic" in2="BackgroundImageFix" result="shape"/>
<feColorMatrix in="SourceAlpha" type="matrix" values="0 0 0 0 0 0 0 0 0 0 0 0 0 0 0 0 0 0 127 0" result="hardAlpha"/>
<feOffset dy="4"/>
<feGaussianBlur stdDeviation="2"/>
<feComposite in2="hardAlpha" operator="arithmetic" k2="-1" k3="1"/>
<feColorMatrix type="matrix" values="0 0 0 0 0 0 0 0 0 0 0 0 0 0 0 0 0 0 0.25 0"/>
<feBlend mode="normal" in2="shape" result="effect1_innerShadow_411_16"/>
</filter>
<filter id="filter2_d_411_16" x="72.5557" y="148.293" width="103.609" height="120.023" filterUnits="userSpaceOnUse" color-interpolation-filters="sRGB">
<feFlood flood-opacity="0" result="BackgroundImageFix"/>
<feColorMatrix in="SourceAlpha" type="matrix" values="0 0 0 0 0 0 0 0 0 0 0 0 0 0 0 0 0 0 127 0" result="hardAlpha"/>
<feOffset dy="4"/>
<feGaussianBlur stdDeviation="2"/>
<feComposite in2="hardAlpha" operator="out"/>
<feColorMatrix type="matrix" values="0 0 0 0 0 0 0 0 0 0 0 0 0 0 0 0 0 0 0.25 0"/>
<feBlend mode="normal" in2="BackgroundImageFix" result="effect1_dropShadow_411_16"/>
<feBlend mode="normal" in="SourceGraphic" in2="effect1_dropShadow_411_16" result="shape"/>
</filter>
</defs>
</svg>
